<svg width="24" height="24" viewBox="0 0 24 24" fill="none" xmlns="http://www.w3.org/2000/svg">
<g id="pdf-file 1">
<g id="Group">
<path id="Vector" d="M19.9488 6.68898L15.2638 2H5.75591C5.33858 2 5 2.33858 5 2.75591V16.1693H19.9488V6.68898Z" fill="#F0F0F0"/>
<path id="Vector_2" d="M15.2638 5.93307C15.2638 6.35039 15.6024 6.68898 16.0197 6.68898H19.9528L15.2638 2V5.93307Z" fill="#D9D9D9"/>
<path id="Vector_3" d="M5.00391 16.1641V21.2428C5.00391 21.6601 5.34249 21.9987 5.75981 21.9987H19.1968C19.6141 21.9987 19.9527 21.6601 19.9527 21.2428V16.1641H5.00391Z" fill="#E83030"/>
<g id="Group_2">
<path id="Vector_4" d="M8.64172 15.3083C8.40156 15.3083 8.16928 15.2178 7.95668 15.0406C7.59841 14.7414 7.57085 14.4107 7.60629 14.1863C7.77952 13.1745 9.66141 12.2493 10.7559 11.7926C11.3504 10.3044 11.8661 8.55244 12.185 7.23748C11.5472 5.87134 11.3228 4.90677 11.5197 4.35953C11.6181 4.08788 11.8189 3.91071 12.1024 3.84772L12.1417 3.83984L12.1811 3.84378C12.2126 3.84772 12.4921 3.89102 12.7205 4.19811C13.0157 4.59969 13.0827 5.24929 12.9173 6.13118C12.8701 6.38315 12.7913 6.74536 12.689 7.17843C13.2716 8.39103 14.0905 9.72961 14.7598 10.6587C15.3189 10.58 15.8504 10.5524 16.2992 10.5997C17.1378 10.6863 17.3149 11.0524 17.3464 11.265C17.3937 11.5761 17.1653 11.8989 16.7756 12.0643C16.2362 12.2926 15.3543 12.2335 14.6378 11.3044C14.6063 11.265 14.5748 11.2217 14.5433 11.1784C13.622 11.332 12.5512 11.6233 11.4646 12.0288C11.3504 12.0721 11.2401 12.1154 11.1299 12.1587C10.3937 13.9619 9.67322 14.9973 8.98424 15.2454C8.874 15.2887 8.75589 15.3083 8.64172 15.3083ZM10.4921 12.4304C8.92912 13.1351 8.15353 13.832 8.08266 14.269C8.06692 14.3635 8.06692 14.5091 8.2677 14.6745C8.45274 14.828 8.62991 14.8674 8.82676 14.7965C9.374 14.5997 9.95668 13.6548 10.4921 12.4304ZM15.0984 11.1036C15.6299 11.7296 16.2283 11.7808 16.5905 11.6233C16.7795 11.5446 16.8858 11.4107 16.874 11.3359C16.8622 11.2572 16.685 11.1233 16.252 11.08C15.9291 11.0485 15.5394 11.0564 15.0984 11.1036ZM12.5157 7.8989C12.2756 8.8241 11.9488 9.93827 11.5669 11.017C11.5 11.202 11.437 11.3792 11.3701 11.5524C12.2244 11.2375 13.2559 10.9304 14.2362 10.7454C13.7086 9.99339 13.059 8.95008 12.5157 7.8989ZM12.1614 4.33591C12.0709 4.3674 12.0118 4.42646 11.9764 4.52882C11.8386 4.90677 12.0197 5.61937 12.3701 6.46189C12.4016 6.31228 12.4291 6.17449 12.4527 6.04851C12.6338 5.06819 12.4606 4.64693 12.3386 4.48551C12.2716 4.39496 12.2008 4.35165 12.1614 4.33591Z" fill="#E83030"/>
</g>
<g id="Group_3">
<path id="Vector_5" d="M16.0352 18.7776H15.1337V17.8603H16.0352C16.2045 17.8603 16.3423 17.7225 16.3423 17.5532C16.3423 17.3839 16.2045 17.2461 16.0352 17.2461H14.8305C14.6612 17.2461 14.5234 17.3839 14.5234 17.5532V20.6083C14.5234 20.7776 14.6612 20.9154 14.8305 20.9154C14.9998 20.9154 15.1376 20.7776 15.1376 20.6083V19.3878H16.0392C16.2085 19.3878 16.3463 19.25 16.3463 19.0807C16.3423 18.9114 16.2045 18.7776 16.0352 18.7776Z" fill="#EFF3F5"/>
<path id="Vector_6" d="M9.53948 17.2502H8.91744C8.74815 17.2502 8.61035 17.388 8.61035 17.5573V20.6124C8.61035 20.7817 8.74815 20.9195 8.91744 20.9195C9.08673 20.9195 9.22452 20.7817 9.22452 20.6124V19.392H9.53948C10.13 19.392 10.6104 18.9117 10.6104 18.3211C10.6104 17.7306 10.13 17.2502 9.53948 17.2502ZM9.53948 18.7778H9.22452V17.8605H9.53948C9.79145 17.8605 9.99618 18.0652 9.99618 18.3172C9.99618 18.5691 9.79145 18.7778 9.53948 18.7778Z" fill="#EFF3F5"/>
<path id="Vector_7" d="M12.1776 17.25H11.3745C11.2052 17.25 11.0674 17.3878 11.0674 17.5571V20.6122C11.0674 20.7815 11.2052 20.9193 11.3745 20.9193H12.1776C13.1894 20.9193 14.0123 20.0965 14.0123 19.0846C14.0123 18.0689 13.1894 17.25 12.1776 17.25ZM12.1776 20.3012H11.6816V17.8563H12.1776C12.8508 17.8563 13.3981 18.4035 13.3981 19.0768C13.402 19.7539 12.8508 20.3012 12.1776 20.3012Z" fill="#EFF3F5"/>
</g>
</g>
</g>
</svg>
