<svg width="64" height="64" viewBox="0 0 64 64" fill="none" xmlns="http://www.w3.org/2000/svg">
<g id="Frame 169" filter="url(#filter0_d_796_8530)">
<circle id="Ellipse 15" cx="32" cy="31" r="28" fill="#194DE6"/>
<g id="Group 1583">
<g id="Group 1456">
<g id="Group">
<path id="Vector" d="M24.4569 19.1204C25.2801 18.9908 26.1173 18.9901 26.949 19.0087L26.8775 19.0746C25.7893 19.7862 24.8868 20.7632 24.2346 21.8845C22.9272 24.1294 22.4507 26.7841 22.5587 29.3573C22.666 31.4525 23.1697 33.5593 24.2377 35.3805C24.4165 35.7064 24.7142 35.9943 24.7189 36.3901C24.7523 37.239 24.3318 38.0391 23.7628 38.6459C23.8001 38.6847 23.8366 38.7235 23.874 38.7623C24.4064 39.3427 24.9746 39.8883 25.5157 40.4609C26.2844 41.3285 27.1605 42.0967 27.9137 42.9798C26.6606 42.9984 25.3928 43.0566 24.1546 42.823C22.596 42.5212 21.2124 41.4426 20.5517 40.0008C20.1514 39.1674 20.0317 38.2354 20.0006 37.3221C19.9998 33.1053 19.9998 28.8894 20.0006 24.6734C20.0177 23.2642 20.3916 21.7898 21.385 20.7446C22.1716 19.8592 23.2855 19.2834 24.4569 19.1204Z" fill="#305FE8"/>
<path id="Vector_2" d="M35.8703 26.8672C36.2038 26.8672 36.5373 26.8672 36.8715 26.8672C36.8661 28.8173 36.8661 30.7681 36.8715 32.7182C36.545 32.6724 36.0017 32.8811 35.8789 32.4473C35.8587 30.5881 35.8773 28.7272 35.8703 26.8672Z" fill="#305FE8"/>
<path id="Vector_3" d="M25.6689 26.9315C27.2204 26.93 28.7704 26.9199 30.3211 26.9308C30.3103 27.2342 30.2932 27.5647 30.0895 27.81C29.0292 29.1276 27.9915 30.4623 26.932 31.7799C28.0584 31.7869 29.1847 31.7822 30.311 31.7822C30.29 32.0453 30.3825 32.3518 30.2115 32.58C30.1043 32.7274 29.9099 32.7142 29.749 32.7158C28.3398 32.708 26.9305 32.7227 25.522 32.708C25.5259 32.4108 25.529 32.0818 25.7373 31.8451C26.7851 30.5329 27.8454 29.23 28.8885 27.9147C27.8166 27.9163 26.7439 27.9077 25.672 27.9194C25.665 27.5903 25.6673 27.2606 25.6689 26.9315Z" fill="#305FE8"/>
<g id="Group_2">
<path id="Vector_4" d="M39.3536 28.2265C40.4698 27.9774 41.6809 28.7092 41.9864 29.8064C42.3696 30.9479 41.67 32.3051 40.5141 32.6528C39.5324 32.9981 38.3571 32.5472 37.8479 31.644C37.4484 30.9766 37.4243 30.1029 37.7873 29.4161C38.0951 28.8101 38.6898 28.367 39.3536 28.2265ZM39.3349 29.2151C38.654 29.4549 38.2871 30.2821 38.5529 30.9502C38.7729 31.5819 39.5137 31.9683 40.1573 31.7743C40.8919 31.599 41.3357 30.74 41.0753 30.0361C40.8577 29.3393 40.0143 28.9373 39.3349 29.2151Z" fill="#305FE8"/>
</g>
<g id="Group_3">
<path id="Vector_5" d="M31.0833 29.031C31.6204 28.3667 32.561 28.0393 33.3896 28.2759C33.6632 28.345 33.9112 28.4816 34.1506 28.6267C34.1482 28.5537 34.1428 28.4086 34.1405 28.3357C34.4537 28.3341 34.7662 28.3349 35.0795 28.3334C35.0779 29.7922 35.0764 31.2511 35.0802 32.7107C34.8502 32.7045 34.6162 32.7317 34.39 32.6851C34.2314 32.6207 34.1824 32.4477 34.1195 32.3064C33.2551 32.9769 31.8971 32.8248 31.1789 32.0084C30.4132 31.2177 30.3736 29.8706 31.0833 29.031ZM32.3487 29.2265C31.629 29.4795 31.2799 30.4053 31.6445 31.0726C31.9554 31.7229 32.8307 31.996 33.4564 31.6375C34.0371 31.3333 34.3053 30.5783 34.0557 29.9746C33.814 29.3181 32.9986 28.9503 32.3487 29.2265Z" fill="#305FE8"/>
</g>
</g>
<g id="Group_4">
<g id="Group_5">
<path id="Vector_6" d="M26.8765 19.0765C27.0507 19.0268 27.2326 19.0113 27.4129 19.0059C30.5214 19.0175 33.6299 19.0043 36.7384 19.0097C37.5693 19.0198 38.4049 18.964 39.2297 19.0904C40.3716 19.1774 41.4707 19.66 42.3203 20.4228C43.3868 21.4401 43.9558 22.9052 43.9737 24.3664C43.9744 28.4799 43.9721 32.5965 43.976 36.7085C43.9651 36.7326 43.9441 36.7822 43.9332 36.8071C42.8256 38.044 41.3362 38.8813 39.7792 39.4229C37.6813 40.1368 35.434 40.3665 33.2288 40.1989C31.0235 40.0096 28.8012 39.4346 26.931 38.2178C25.9749 38.6423 24.92 38.8503 23.873 38.7641C23.8357 38.7253 23.7991 38.6865 23.7618 38.6477C24.3308 38.0409 24.7514 37.2409 24.7179 36.3919C24.7133 35.9962 24.4155 35.7083 24.2368 35.3824C23.1687 33.5611 22.665 31.4543 22.5578 29.3591C22.4497 26.7859 22.9262 24.1313 24.2337 21.8863C24.8858 20.765 25.7883 19.7881 26.8765 19.0765ZM35.8686 26.8651C35.8756 28.7251 35.8569 30.586 35.8771 32.4452C35.9999 32.879 36.5433 32.6703 36.8697 32.7161C36.8643 30.766 36.8643 28.8151 36.8697 26.8651C36.5355 26.8651 36.202 26.8651 35.8686 26.8651ZM25.667 26.9341C25.6655 27.2632 25.6631 27.593 25.6701 27.922C26.7421 27.9103 27.8148 27.9189 28.8867 27.9173C27.8435 29.2326 26.7833 30.5355 25.7354 31.8477C25.5271 32.0844 25.524 32.4134 25.5201 32.7106C26.9286 32.7254 28.3379 32.7106 29.7472 32.7184C29.9081 32.7168 30.1024 32.73 30.2097 32.5826C30.3807 32.3544 30.2882 32.0479 30.3092 31.7849C29.1828 31.7849 28.0565 31.7895 26.9302 31.7825C27.9897 30.4649 29.0274 29.1302 30.0876 27.8126C30.2913 27.5674 30.3084 27.2368 30.3193 26.9334C28.7685 26.9225 27.2186 26.9326 25.667 26.9341ZM39.3517 28.2254C38.6879 28.3659 38.0932 28.8089 37.7854 29.415C37.4224 30.1017 37.4465 30.9755 37.8461 31.6429C38.3552 32.5461 39.5305 32.997 40.5123 32.6516C41.6681 32.304 42.3677 30.9468 41.9845 29.8053C41.679 28.7081 40.468 27.9763 39.3517 28.2254ZM31.0826 29.0379C30.3729 29.8775 30.4126 31.2246 31.1782 32.0153C31.8965 32.8317 33.2544 32.9838 34.1188 32.3133C34.1818 32.4545 34.2307 32.6276 34.3893 32.692C34.6155 32.7386 34.8495 32.7114 35.0796 32.7176C35.0757 31.258 35.0772 29.7991 35.0788 28.3402C34.7655 28.3418 34.4531 28.341 34.1398 28.3426C34.1421 28.4155 34.1476 28.5606 34.1499 28.6336C33.9105 28.4885 33.6625 28.3519 33.3889 28.2828C32.5603 28.0461 31.6197 28.3736 31.0826 29.0379Z" fill="white"/>
</g>
<path id="Vector_7" d="M32.3478 29.2334C32.9977 28.9571 33.8131 29.3249 34.0548 29.9814C34.3043 30.5851 34.0361 31.3402 33.4555 31.6444C32.8298 32.0029 31.9545 31.7297 31.6436 31.0794C31.279 30.4121 31.628 29.4863 32.3478 29.2334Z" fill="white"/>
<path id="Vector_8" d="M39.3333 29.2138C40.0127 28.936 40.8561 29.3379 41.0737 30.0348C41.3341 30.7386 40.8903 31.5976 40.1557 31.773C39.5121 31.967 38.7713 31.5805 38.5513 30.9489C38.2855 30.2807 38.6524 29.4535 39.3333 29.2138Z" fill="white"/>
</g>
<g id="Group_6">
<path id="Vector_9" d="M43.9343 36.8031L43.9957 36.7363C44.0276 37.9492 43.8962 39.2148 43.3 40.2942C42.6066 41.5607 41.3489 42.5012 39.9342 42.8022C39.1406 42.966 38.3267 43.0024 37.5183 42.9924C35.0317 42.9931 32.545 42.9924 30.0584 42.9931C29.3432 42.9815 28.6265 43.0149 27.9137 42.9776C27.1605 42.0945 26.2845 41.3263 25.5157 40.4588C24.9747 39.8861 24.4065 39.3406 23.874 38.7601C24.9211 38.8462 25.9759 38.6383 26.932 38.2138C28.8022 39.4306 31.0246 40.0056 33.2298 40.1949C35.4351 40.3625 37.6823 40.1328 39.7803 39.4189C41.3373 38.8773 42.8266 38.04 43.9343 36.8031Z" fill="#305FE8"/>
</g>
</g>
</g>
</g>
<defs>
<filter id="filter0_d_796_8530" x="0" y="0" width="64" height="64" filterUnits="userSpaceOnUse" color-interpolation-filters="sRGB">
<feFlood flood-opacity="0" result="BackgroundImageFix"/>
<feColorMatrix in="SourceAlpha" type="matrix" values="0 0 0 0 0 0 0 0 0 0 0 0 0 0 0 0 0 0 127 0" result="hardAlpha"/>
<feOffset dy="1"/>
<feGaussianBlur stdDeviation="2"/>
<feColorMatrix type="matrix" values="0 0 0 0 0 0 0 0 0 0 0 0 0 0 0 0 0 0 0.1 0"/>
<feBlend mode="normal" in2="BackgroundImageFix" result="effect1_dropShadow_796_8530"/>
<feBlend mode="normal" in="SourceGraphic" in2="effect1_dropShadow_796_8530" result="shape"/>
</filter>
</defs>
</svg>
