<svg width="24" height="24" viewBox="0 0 24 24" fill="none" xmlns="http://www.w3.org/2000/svg">
<g id="admin 1" clip-path="url(#clip0_656_26035)">
<g id="Group">
<path id="Vector" d="M12.0475 14.1976C13.8684 14.1976 15.3445 12.7214 15.3445 10.9005C15.3445 9.07965 13.8684 7.60352 12.0475 7.60352C10.2266 7.60352 8.75049 9.07965 8.75049 10.9005C8.75049 12.7214 10.2266 14.1976 12.0475 14.1976Z" fill="white"/>
<path id="Vector_2" d="M6.9217 18.0647C6.38866 18.8975 6.10693 19.8604 6.10693 20.8492V24.0004H17.9881V20.8492C17.9881 19.8604 17.7064 18.8976 17.1734 18.0646C16.2192 16.5737 14.5927 15.6836 12.8225 15.6836H11.2725C9.50239 15.6836 7.8759 16.5737 6.9217 18.0647Z" fill="white"/>
<path id="Vector_3" d="M22.693 12.8403V8.54585L20.097 7.92779C19.9799 7.58514 19.8406 7.24938 19.6804 6.92355L21.0794 4.65025L18.0427 1.61361L15.7694 3.01259C15.4436 2.85239 15.1079 2.71309 14.7652 2.59599L14.1472 0H9.85279L9.23468 2.59599C8.89203 2.71309 8.55626 2.85239 8.23048 3.01259L5.95718 1.61361L2.92049 4.65025L4.31943 6.92355C4.15923 7.24938 4.01993 7.58514 3.90283 7.92779L1.30688 8.5458V12.8402L3.90288 13.4583C4.01998 13.801 4.15927 14.1368 4.31948 14.4626L2.91393 16.7466L5.01947 18.7633C5.1907 18.2501 5.42543 17.7572 5.72079 17.2957C6.53846 16.0181 7.7433 15.087 9.13041 14.6127C8.03154 13.7472 7.32475 12.4051 7.32475 10.901C7.32475 8.29687 9.44341 6.17822 12.0475 6.17822C14.6516 6.17822 16.7703 8.29687 16.7703 10.901C16.7703 12.4051 16.0635 13.7472 14.9646 14.6127C16.3517 15.087 17.5565 16.0181 18.3742 17.2957C18.6828 17.7778 18.9246 18.2943 19.0975 18.8323C19.0975 18.8323 19.0974 18.8321 19.0974 18.8321L21.0691 16.7191L19.6805 14.4627C19.8407 14.1369 19.98 13.8011 20.0971 13.4584L22.693 12.8403Z" fill="white"/>
</g>
</g>
<defs>
<clipPath id="clip0_656_26035">
<rect width="24" height="24" fill="white"/>
</clipPath>
</defs>
</svg>
