<svg width="40" height="31" viewBox="0 0 40 31" fill="none" xmlns="http://www.w3.org/2000/svg">
<g id="Group 1275">
<g id="Group 1275_2">
<path id="Vector" d="M13.5666 28.8688C13.1031 29.7907 11.9114 30.5 10.9183 30.5H1.1196C0.126488 30.5 -0.270774 29.7907 0.19268 28.8688L6.41621 17.1666C6.87967 16.2447 6.87967 14.7553 6.41621 13.8334L0.19268 2.13124C-0.270774 1.20925 0.126488 0.5 1.1196 0.5H10.9183C11.9114 0.5 13.1031 1.20925 13.5666 2.13124L19.7901 13.8334C20.2536 14.7553 20.2536 16.2447 19.7901 17.1666L13.5666 28.8688Z" fill="#305FE8"/>
<path id="Vector_2" d="M33.4289 28.8688C32.9654 29.7907 31.7737 30.5 30.7806 30.5H20.9819C19.9888 30.5 19.5915 29.7907 20.055 28.8688L26.2785 17.1666C26.742 16.2447 26.742 14.7553 26.2785 13.8334L20.055 2.13124C19.5915 1.20925 19.9888 0.5 20.9819 0.5H30.7806C31.7737 0.5 32.9654 1.20925 33.4289 2.13124L39.6524 13.8334C40.1159 14.7553 40.1159 16.2447 39.6524 17.1666L33.4289 28.8688Z" fill="#305FE8"/>
</g>
</g>
</svg>
