<svg width="24" height="24" viewBox="0 0 24 24" fill="none" xmlns="http://www.w3.org/2000/svg">
<g id="school 1">
<g id="b">
<g id="Group">
<path id="Vector" d="M12 13.4996C11.8605 13.4996 11.7236 13.4752 11.5927 13.4268L6 11.3516V14.0981L6.41587 14.3756C6.43462 14.3879 8.54887 15.7496 12 15.7496C15.4511 15.7496 17.5654 14.3879 17.586 14.3741L18 14.1026V11.3516L12.4069 13.4268C12.2764 13.4752 12.1395 13.4996 12 13.4996Z" fill="white"/>
<path id="Vector_2" d="M6 15V16.065C6 16.3425 6.15 16.5975 6.3975 16.725C7.19625 17.145 9.16875 18 12 18C14.8313 18 16.8037 17.145 17.6025 16.725C17.85 16.5975 18 16.3425 18 16.065V15C18 15 15.75 16.5 12 16.5C8.25 16.5 6 15 6 15Z" fill="white"/>
<path id="Vector_3" d="M22.2464 8.27353L12.1462 4.52616C12.0521 4.49128 11.9478 4.49128 11.8537 4.52616L1.75344 8.27353C1.41519 8.39916 1.41519 8.85103 1.75344 8.97628L11.8537 12.7237C11.9478 12.7585 12.0521 12.7585 12.1462 12.7237L20.6249 9.57778V16.2288C20.4018 16.3585 20.2499 16.5978 20.2499 16.8749C20.2499 17.1348 20.3823 17.3639 20.5837 17.4985L20.2499 19.4999H21.7499L21.4162 17.4985C21.6172 17.3639 21.7499 17.1352 21.7499 16.8749C21.7499 16.5982 21.5981 16.3589 21.3749 16.2288V9.29953L22.2464 8.97628C22.5847 8.85066 22.5847 8.39878 22.2464 8.27353Z" fill="white"/>
</g>
</g>
</g>
</svg>
