<svg width="24" height="24" viewBox="0 0 24 24" fill="none" xmlns="http://www.w3.org/2000/svg">
<g id="document 1">
<g id="Group 1000015012">
<path id="Vector" d="M14.5078 7.85938C13.7539 7.85938 13.1406 7.24605 13.1406 6.49219V2H6.14844C4.96379 2 4 2.96379 4 4.14844V19.8516C4 21.0362 4.96379 22 6.14844 22H17.0859C18.2706 22 19.2344 21.0362 19.2344 19.8516V7.85938H14.5078ZM7.20312 16.0625H10.0437C10.3673 16.0625 10.6297 16.3248 10.6297 16.6484C10.6297 16.972 10.3673 17.2344 10.0437 17.2344H7.20312C6.87953 17.2344 6.61719 16.972 6.61719 16.6484C6.61719 16.3248 6.87953 16.0625 7.20312 16.0625ZM6.61719 13.5234C6.61719 13.1998 6.87953 12.9375 7.20312 12.9375H15.7969C16.1205 12.9375 16.3828 13.1998 16.3828 13.5234C16.3828 13.847 16.1205 14.1094 15.7969 14.1094H7.20312C6.87953 14.1094 6.61719 13.847 6.61719 13.5234ZM15.7969 9.8125C16.1205 9.8125 16.3828 10.0748 16.3828 10.3984C16.3828 10.722 16.1205 10.9844 15.7969 10.9844H7.20312C6.87953 10.9844 6.61719 10.722 6.61719 10.3984C6.61719 10.0748 6.87953 9.8125 7.20312 9.8125H15.7969Z" fill="#305FE8"/>
<path id="Vector_2" d="M14.3125 6.49234C14.3125 6.60004 14.4001 6.68766 14.5078 6.68766H18.9732C18.866 6.48977 18.7281 6.30801 18.5625 6.15125L14.7959 2.58789C14.6498 2.44961 14.487 2.33426 14.3125 2.24316V6.49234H14.3125Z" fill="#305FE8"/>
</g>
</g>
</svg>
