<svg width="24" height="24" viewBox="0 0 24 24" fill="none" xmlns="http://www.w3.org/2000/svg">
<g id="video-lesson 1">
<g id="layer1">
<path id="path5007" d="M2.66056 4.50098C2.44351 4.50098 2.25041 4.68423 2.25041 4.90745V15.751H21.7497V4.90745C21.7497 4.68276 21.5621 4.50098 21.3432 4.50098H2.66056ZM7.86443 6.59863C7.99695 6.599 8.12918 6.63066 8.22697 6.69316L11.5558 8.81938C11.7175 8.92271 11.7376 9.08289 11.6321 9.20684V10.5171C12.1089 10.5799 12.0435 11.289 11.5632 11.2635H10.9487C10.5042 11.2507 10.4469 10.6128 10.8821 10.5215V9.71222L10.4998 9.9561V11.8172C10.4998 12.2563 10.2145 12.5779 9.96582 12.6976C9.71712 12.8168 9.48387 12.8111 9.48387 12.8111H6.26782C6.26782 12.8111 6.03459 12.8168 5.78589 12.6976C5.53718 12.5779 5.25122 12.2563 5.25122 11.8172V9.93633L4.2002 9.2647C4.00463 9.13983 4.00463 8.92522 4.2002 8.80035L7.50121 6.69169C7.599 6.62919 7.73194 6.5982 7.86443 6.59863ZM12.7145 7.87523C15.0985 7.8752 17.4896 7.87523 19.8761 7.87523C20.3875 7.86389 20.3875 8.63672 19.8761 8.62524H12.7504C12.2395 8.66138 12.2024 7.88807 12.7145 7.87523ZM14.2153 10.126C16.1063 10.1259 18.0046 10.126 19.8981 10.126C20.4095 10.1146 20.4095 10.8874 19.8981 10.876H14.2511C13.7402 10.9121 13.7032 10.1388 14.2153 10.126ZM6.37394 13.8694C6.56144 13.8701 6.74895 13.9974 6.74895 14.2502H19.1254C19.6368 14.2389 19.6368 15.0117 19.1254 15.0002H6.74895C6.73902 15.4896 6.00953 15.4896 5.99896 15.0002H5.63641C5.14685 15.0147 5.10914 14.2864 5.59757 14.2502C5.61032 14.2495 5.62351 14.2495 5.63641 14.2502H5.99896C5.99896 13.9951 6.18644 13.8688 6.37394 13.8694ZM1.12689 16.501C1.12405 17.4207 1.12764 18.1029 1.40081 18.6433C1.55421 18.9468 1.81938 19.1886 2.15374 19.3215C2.48809 19.4545 2.88094 19.4987 3.37469 19.4988H20.9997C21.4059 19.4987 21.7431 19.4523 22.0324 19.3076C22.3217 19.163 22.5366 18.909 22.655 18.6133C22.8658 18.0865 22.8708 17.4175 22.8747 16.501H13.7722L13.589 17.248H10.4477L10.2646 16.501H1.12689Z" fill="white"/>
</g>
</g>
</svg>
