<svg width="24" height="24" viewBox="0 0 24 24" fill="none" xmlns="http://www.w3.org/2000/svg">
<g id="Frame" clip-path="url(#clip0_656_29125)">
<path id="Vector" d="M9.88299 2.2074C10.3587 2.15134 10.8379 2.277 11.2249 2.55921C11.6119 2.84142 11.878 3.25937 11.97 3.7294L11.995 3.8964L12 4.0004V8.0004C11.9999 8.20247 11.9386 8.39978 11.8242 8.56633C11.7098 8.73288 11.5476 8.86086 11.359 8.9334L11.252 8.9684C10.7308 9.1039 10.2539 9.37282 9.86831 9.74867C9.48268 10.1245 9.20161 10.5944 9.05278 11.1119C8.90395 11.6294 8.8925 12.1768 9.01954 12.7C9.14659 13.2233 9.40776 13.7045 9.77732 14.0962C10.1469 14.4878 10.6121 14.7765 11.1271 14.9337C11.6422 15.0908 12.1893 15.1111 12.7146 14.9926C13.2399 14.874 13.7252 14.6207 14.1228 14.2575C14.5204 13.8943 14.8165 13.4338 14.982 12.9214L15.032 12.7484C15.0828 12.5528 15.1918 12.3772 15.3444 12.2448C15.497 12.1123 15.6862 12.0292 15.887 12.0064L16 12.0004H19.8C20.3304 12.0004 20.8391 12.2111 21.2142 12.5862C21.5893 12.9613 21.8 13.47 21.8 14.0004C21.7999 14.0765 21.7912 14.1523 21.774 14.2264C21.3738 15.9531 20.5219 17.5423 19.3055 18.8315C18.0891 20.1206 16.5519 21.0633 14.8513 21.5629C13.1508 22.0626 11.348 22.1013 9.62757 21.6751C7.90715 21.2489 6.33092 20.3731 5.06029 19.1374C3.78967 17.9016 2.87031 16.3504 2.39636 14.6425C1.92242 12.9346 1.91092 11.1314 2.36305 9.41764C2.81517 7.70385 3.71468 6.14101 4.96944 4.88918C6.22421 3.63735 7.78914 2.74151 9.50399 2.2934L9.77399 2.2264L9.88399 2.2064L9.88299 2.2074Z" fill="#305FE8"/>
<path id="Vector_2" d="M14.775 2.526C14.8471 2.50918 14.9209 2.50046 14.995 2.5L15.117 2.507L15.229 2.527L15.332 2.557C16.693 3.03611 17.9343 3.80408 18.9705 4.80818C20.0067 5.81228 20.8133 7.02872 21.335 8.374L21.443 8.668C21.4927 8.80928 21.5101 8.95992 21.4938 9.10882C21.4776 9.25771 21.428 9.40104 21.349 9.52823C21.2699 9.65542 21.1632 9.76322 21.0369 9.84366C20.9105 9.92411 20.7677 9.97514 20.619 9.993L20.5 10H16C15.8556 10 15.7128 9.96873 15.5816 9.90831C15.4504 9.84789 15.3339 9.75977 15.24 9.65C14.9672 9.33042 14.6696 9.03283 14.35 8.76C14.1608 8.598 14.0388 8.3712 14.008 8.124L14 8V3.505L14.006 3.387C14.011 3.345 14.018 3.307 14.026 3.271L14.056 3.168C14.0943 3.05939 14.1512 2.95823 14.224 2.869L14.295 2.789C14.325 2.761 14.353 2.737 14.382 2.714L14.472 2.651L14.56 2.601L14.663 2.558L14.775 2.526Z" fill="#305FE8"/>
</g>
<defs>
<clipPath id="clip0_656_29125">
<rect width="24" height="24" fill="white"/>
</clipPath>
</defs>
</svg>
