<svg width="24" height="24" viewBox="0 0 24 24" fill="none" xmlns="http://www.w3.org/2000/svg">
<g id="network 1" clip-path="url(#clip0_656_28489)">
<g id="Connection">
<path id="Vector" d="M4.05762 5.05457L7.95762 9.27332C8.38379 8.64483 8.94985 8.12368 9.61137 7.75082L5.71512 3.52832C5.3812 4.23258 4.78697 4.77975 4.05762 5.05457Z" fill="#305FE8"/>
<path id="Vector_2" d="M16.2563 9.62594L19.1213 6.99344C18.4585 6.6079 17.9288 6.02978 17.6025 5.33594L14.7375 7.96469C15.3653 8.39373 15.8851 8.96234 16.2563 9.62594Z" fill="#305FE8"/>
<path id="Vector_3" d="M6.98999 18.7617C7.76863 18.8229 8.49195 19.1879 9.00374 19.7779C9.46499 18.9192 10.0425 17.8579 10.6875 16.6917C9.95121 16.4886 9.27381 16.1133 8.71124 15.5967C8.03624 16.8229 7.45874 17.8804 6.98999 18.7617Z" fill="#305FE8"/>
<path id="Vector_4" d="M19.1399 17.0887C18.4011 16.3725 17.4449 15.4725 16.2561 14.37C15.8838 15.036 15.3628 15.6071 14.7336 16.0387C15.8211 17.0475 16.7699 17.94 17.5124 18.6487C17.8326 17.9377 18.416 17.3786 19.1399 17.0887Z" fill="#305FE8"/>
<path id="Vector_5" d="M5.02881 10.875C5.32381 11.596 5.32381 12.404 5.02881 13.125H7.25631C7.08131 12.3852 7.08131 11.6148 7.25631 10.875H5.02881Z" fill="#305FE8"/>
<path id="Vector_6" d="M12 16.125C14.2782 16.125 16.125 14.2782 16.125 12C16.125 9.72183 14.2782 7.875 12 7.875C9.72183 7.875 7.875 9.72183 7.875 12C7.875 14.2782 9.72183 16.125 12 16.125Z" fill="#305FE8"/>
<path id="Vector_7" d="M3 4.5C4.24264 4.5 5.25 3.49264 5.25 2.25C5.25 1.00736 4.24264 0 3 0C1.75736 0 0.75 1.00736 0.75 2.25C0.75 3.49264 1.75736 4.5 3 4.5Z" fill="#305FE8"/>
<path id="Vector_8" d="M6.75 24C7.99264 24 9 22.9926 9 21.75C9 20.5074 7.99264 19.5 6.75 19.5C5.50736 19.5 4.5 20.5074 4.5 21.75C4.5 22.9926 5.50736 24 6.75 24Z" fill="#305FE8"/>
<path id="Vector_9" d="M21 6.75C22.6569 6.75 24 5.40685 24 3.75C24 2.09315 22.6569 0.75 21 0.75C19.3431 0.75 18 2.09315 18 3.75C18 5.40685 19.3431 6.75 21 6.75Z" fill="#305FE8"/>
<path id="Vector_10" d="M20.25 22.125C21.4926 22.125 22.5 21.1176 22.5 19.875C22.5 18.6324 21.4926 17.625 20.25 17.625C19.0074 17.625 18 18.6324 18 19.875C18 21.1176 19.0074 22.125 20.25 22.125Z" fill="#305FE8"/>
<path id="Vector_11" d="M2.25 14.25C3.49264 14.25 4.5 13.2426 4.5 12C4.5 10.7574 3.49264 9.75 2.25 9.75C1.00736 9.75 0 10.7574 0 12C0 13.2426 1.00736 14.25 2.25 14.25Z" fill="#305FE8"/>
</g>
</g>
<defs>
<clipPath id="clip0_656_28489">
<rect width="24" height="24" fill="white"/>
</clipPath>
</defs>
</svg>
