<svg width="32" height="32" viewBox="0 0 32 32" fill="none" xmlns="http://www.w3.org/2000/svg">
<g id="image 62">
<g id="image-upload">
<path id="Vector" opacity="0.4" d="M29.0001 11.8424V22.6664C29.0789 23.3421 29.0038 24.0268 28.7804 24.6693C28.557 25.3118 28.1911 25.8954 27.7101 26.3764C27.2291 26.8574 26.6455 27.2233 26.003 27.4468C25.3605 27.6702 24.6757 27.7453 24.0001 27.6664H8.00009C7.32444 27.7453 6.63971 27.6702 5.99721 27.4468C5.3547 27.2233 4.77109 26.8574 4.29009 26.3764C3.80909 25.8954 3.44318 25.3118 3.21978 24.6693C2.99638 24.0268 2.92127 23.3421 3.00009 22.6664V9.3331C2.92127 8.65745 2.99638 7.97272 3.21978 7.33022C3.44318 6.68771 3.80909 6.1041 4.29009 5.6231C4.77109 5.1421 5.3547 4.77619 5.99721 4.55279C6.63971 4.32938 7.32444 4.25428 8.00009 4.3331H19.7334C19.7924 4.33465 19.8504 4.34923 19.903 4.3758C19.9557 4.40237 20.0019 4.44027 20.0382 4.48679C20.0746 4.53331 20.1001 4.58729 20.1131 4.64486C20.1261 4.70242 20.1262 4.76216 20.1134 4.81977C19.7988 6.37768 20.1152 7.99675 20.9931 9.32163C21.8711 10.6465 23.2388 11.5689 24.7961 11.8864C26.0287 12.1328 27.3075 11.9859 28.4521 11.4664C28.5131 11.4421 28.5792 11.4332 28.6445 11.4405C28.7098 11.4478 28.7723 11.471 28.8264 11.5082C28.8806 11.5454 28.9248 11.5953 28.9551 11.6536C28.9854 11.7119 29.0008 11.7767 29.0001 11.8424Z" fill="#305FE8"/>
<path id="Vector_2" d="M26.8827 18.8837L20.9467 12.9477C20.6953 12.6973 20.3549 12.5566 20 12.5566C19.6451 12.5566 19.3047 12.6973 19.0533 12.9477L12.4667 19.5344C12.342 19.6565 12.1745 19.725 12 19.725C11.8255 19.725 11.658 19.6565 11.5333 19.5344L10.28 18.281C10.0286 18.0306 9.6882 17.89 9.33333 17.89C8.97847 17.89 8.63807 18.0306 8.38667 18.281L5.11733 21.5504C5.0423 21.6253 5.00009 21.727 5 21.833V22.6677C5 24.7744 5.89333 25.6677 8 25.6677H24C26.1067 25.6677 27 24.7744 27 22.6677V19.1664C26.9999 19.0603 26.9577 18.9587 26.8827 18.8837Z" fill="#305FE8"/>
<path id="Vector_3" d="M10.6668 13.6673C10.4479 13.6681 10.2311 13.6258 10.0286 13.5427C9.82604 13.4597 9.64187 13.3376 9.48655 13.1834C9.17286 12.872 8.99574 12.4487 8.99415 12.0067C8.99256 11.5646 9.16663 11.1401 9.47806 10.8264C9.7895 10.5127 10.2128 10.3356 10.6548 10.334H10.6668C11.1088 10.334 11.5328 10.5096 11.8453 10.8221C12.1579 11.1347 12.3335 11.5586 12.3335 12.0007C12.3335 12.4427 12.1579 12.8666 11.8453 13.1792C11.5328 13.4917 11.1088 13.6673 10.6668 13.6673Z" fill="#305FE8"/>
<path id="Vector_4" d="M28.7071 5.29386L26.7071 3.29386C26.5194 3.10691 26.2653 3.00195 26.0004 3.00195C25.7356 3.00195 25.4815 3.10691 25.2938 3.29386L23.2938 5.29386C23.1171 5.48342 23.021 5.73415 23.0255 5.99322C23.0301 6.25229 23.1351 6.49947 23.3183 6.68269C23.5015 6.8659 23.7487 6.97085 24.0077 6.97542C24.2668 6.97999 24.5175 6.88383 24.7071 6.70719L25.0004 6.41519V9.33386C25.0004 9.59907 25.1058 9.85343 25.2933 10.041C25.4809 10.2285 25.7352 10.3339 26.0004 10.3339C26.2657 10.3339 26.52 10.2285 26.7076 10.041C26.8951 9.85343 27.0004 9.59907 27.0004 9.33386V6.41519L27.2938 6.70719C27.4833 6.88383 27.7341 6.97999 27.9931 6.97542C28.2522 6.97085 28.4994 6.8659 28.6826 6.68269C28.8658 6.49947 28.9708 6.25229 28.9753 5.99322C28.9799 5.73415 28.8838 5.48342 28.7071 5.29386Z" fill="#305FE8"/>
</g>
</g>
</svg>
