<svg width="216" height="218" viewBox="0 0 216 218" fill="none" xmlns="http://www.w3.org/2000/svg">
<g id="Isolation_Mode" clip-path="url(#clip0_277_48984)">
<g id="712, Down, Failure, Mark">
<path id="Vector" d="M109.078 164.285C108.074 164.301 107.096 164.613 106.268 165.182C105.44 165.751 104.799 166.553 104.425 167.485C104.052 168.418 103.962 169.44 104.167 170.424C104.373 171.407 104.864 172.308 105.58 173.013C106.296 173.718 107.204 174.196 108.191 174.386C109.177 174.577 110.198 174.471 111.125 174.083C112.052 173.696 112.843 173.042 113.4 172.206C113.957 171.369 114.254 170.387 114.254 169.382C114.27 168.702 114.147 168.025 113.892 167.394C113.637 166.763 113.255 166.191 112.77 165.713C112.285 165.235 111.707 164.862 111.072 164.616C110.437 164.371 109.759 164.258 109.078 164.285Z" fill="#E83030"/>
<path id="Vector_2" d="M109.078 34.11C94.0719 34.2802 79.4512 38.8855 67.0564 47.3464C54.6616 55.8073 45.0467 67.7456 39.4216 81.6587C33.7965 95.5719 32.4126 110.838 35.4442 125.536C38.4759 140.234 45.7877 153.706 56.459 164.258C67.1304 174.81 80.6846 181.969 95.4157 184.835C110.147 187.701 125.396 186.145 139.245 180.363C153.094 174.581 164.923 164.832 173.244 152.343C181.564 139.854 186.005 125.182 186.005 110.175C185.86 89.8964 177.682 70.5027 163.262 56.2445C148.842 41.9862 129.357 34.0265 109.078 34.11ZM109.078 41.5596C111.012 41.5828 112.895 42.1774 114.492 43.2684C116.088 44.3595 117.326 45.8985 118.05 47.6915C118.774 49.4845 118.951 51.4516 118.56 53.3452C118.168 55.2388 117.226 56.9744 115.85 58.3335C114.475 59.6926 112.728 60.6145 110.83 60.9833C108.932 61.3521 106.967 61.1513 105.183 60.4061C103.399 59.6608 101.875 58.4044 100.803 56.7951C99.7306 55.1858 99.1585 53.2954 99.1584 51.3618C99.153 50.0631 99.4068 48.7764 99.9049 47.577C100.403 46.3776 101.135 45.2896 102.059 44.3768C102.983 43.464 104.079 42.7447 105.285 42.2609C106.49 41.7772 107.78 41.5388 109.078 41.5596ZM49.5987 119.977C47.6652 119.954 45.7817 119.359 44.1853 118.268C42.5889 117.177 41.3509 115.638 40.627 113.845C39.9031 112.052 39.7257 110.085 40.1171 108.191C40.5085 106.298 41.4512 104.562 42.8266 103.203C44.202 101.844 45.9487 100.922 47.8469 100.553C49.745 100.184 51.7098 100.385 53.4941 101.13C55.2784 101.876 56.8024 103.132 57.8743 104.741C58.9463 106.351 59.5184 108.241 59.5185 110.175C59.5239 111.473 59.2701 112.76 58.772 113.96C58.2739 115.159 57.5416 116.247 56.6178 117.16C55.694 118.073 54.5974 118.792 53.3922 119.276C52.1869 119.759 50.8973 119.998 49.5987 119.977ZM109.078 178.79C107.146 178.759 105.267 178.158 103.676 177.062C102.085 175.966 100.853 174.425 100.135 172.631C99.4169 170.838 99.245 168.872 99.6407 166.981C100.036 165.09 100.982 163.358 102.359 162.003C103.736 160.648 105.483 159.73 107.38 159.364C109.277 158.998 111.24 159.201 113.022 159.948C114.804 160.694 116.325 161.95 117.396 163.559C118.466 165.167 119.037 167.056 119.037 168.988C119.043 170.29 118.788 171.58 118.287 172.782C117.787 173.984 117.051 175.074 116.123 175.987C115.195 176.9 114.093 177.619 112.884 178.1C111.674 178.582 110.38 178.816 109.078 178.79ZM141.582 126.642C141.983 127.143 142.201 127.765 142.201 128.407C142.201 129.048 141.983 129.67 141.582 130.171L129.31 142.326C128.795 142.711 128.169 142.919 127.526 142.919C126.883 142.919 126.257 142.711 125.742 142.326L109.078 125.858L92.4145 142.326C91.8994 142.711 91.2736 142.919 90.6306 142.919C89.9875 142.919 89.3616 142.711 88.8465 142.326L76.535 130.171C76.1533 129.662 75.9469 129.043 75.9469 128.407C75.9469 127.77 76.1533 127.151 76.535 126.642L93.1987 110.175L76.535 93.7071C76.1533 93.1981 75.9469 92.579 75.9469 91.9428C75.9469 91.3065 76.1533 90.6873 76.535 90.1783L88.8465 78.0236C89.3616 77.6386 89.9875 77.4306 90.6306 77.4306C91.2736 77.4306 91.8994 77.6386 92.4145 78.0236L109.078 94.4913L125.742 78.0236C126.257 77.6386 126.883 77.4306 127.526 77.4306C128.169 77.4306 128.795 77.6386 129.31 78.0236L141.582 90.1783C141.983 90.679 142.201 91.3013 142.201 91.9428C142.201 92.5842 141.983 93.2064 141.582 93.7071L124.958 110.175L141.582 126.642ZM178.477 110.175C178.501 112.142 177.939 114.071 176.863 115.718C175.787 117.364 174.247 118.654 172.436 119.423C170.626 120.192 168.627 120.405 166.696 120.036C164.764 119.666 162.985 118.731 161.586 117.348C160.187 115.966 159.23 114.199 158.838 112.271C158.446 110.344 158.635 108.343 159.382 106.524C160.13 104.704 161.401 103.148 163.035 102.053C164.668 100.958 166.591 100.373 168.558 100.373C169.856 100.352 171.146 100.59 172.351 101.074C173.556 101.558 174.653 102.277 175.577 103.19C176.501 104.103 177.233 105.191 177.731 106.39C178.229 107.589 178.483 108.876 178.477 110.175Z" fill="#E83030"/>
<path id="Vector_3" d="M110.686 99.5886C110.162 99.971 109.531 100.177 108.882 100.177C108.234 100.177 107.603 99.971 107.079 99.5886L90.4544 83.1211L81.7109 91.7469L98.3746 108.215C98.7564 108.724 98.9627 109.343 98.9627 109.979C98.9627 110.615 98.7564 111.234 98.3746 111.743L81.7109 128.211L90.4544 136.837L107.079 120.369C107.603 119.987 108.234 119.781 108.882 119.781C109.531 119.781 110.162 119.987 110.686 120.369L127.31 136.837L136.054 128.211L119.39 111.743C119.009 111.234 118.802 110.615 118.802 109.979C118.802 109.343 119.009 108.724 119.39 108.215L136.054 91.7469L127.31 83.1211L110.686 99.5886Z" fill="#E83030"/>
<path id="Vector_4" d="M109.078 14.5086C90.2048 14.7252 71.8173 20.5197 56.2297 31.1627C40.6421 41.8058 28.5509 56.8218 21.478 74.3211C14.4051 91.8203 12.6665 111.021 16.4809 129.506C20.2954 147.991 29.4925 164.934 42.9147 178.204C56.3369 191.474 73.3846 200.478 91.912 204.081C110.439 207.684 129.619 205.727 147.036 198.455C164.453 191.182 179.33 178.921 189.795 163.213C200.26 147.505 205.844 129.052 205.845 110.178C205.659 84.6719 195.369 60.2802 177.23 42.3476C159.092 24.415 134.584 14.4042 109.078 14.5086ZM109.078 190.947C93.1447 190.762 77.6223 185.867 64.4641 176.88C51.306 167.893 41.1001 155.215 35.1309 140.441C29.1617 125.666 27.6957 109.457 30.9177 93.8513C34.1397 78.246 41.9055 63.9424 53.238 52.7405C64.5704 41.5386 78.963 33.9389 94.6046 30.8979C110.246 27.8569 126.438 29.5104 141.142 35.6504C155.846 41.7903 168.405 52.1424 177.239 65.4037C186.074 78.6651 190.788 94.2432 190.789 110.178C190.623 131.711 181.931 152.301 166.616 167.44C151.302 182.578 130.612 191.031 109.078 190.947Z" fill="#E83030"/>
<path id="Vector_5" d="M168.558 115.272C169.565 115.264 170.546 114.959 171.379 114.394C172.212 113.829 172.859 113.031 173.239 112.099C173.619 111.167 173.714 110.143 173.513 109.157C173.312 108.171 172.824 107.266 172.109 106.557C171.395 105.848 170.487 105.367 169.499 105.173C168.511 104.98 167.489 105.083 166.559 105.47C165.63 105.857 164.837 106.51 164.278 107.347C163.72 108.185 163.422 109.169 163.422 110.175C163.452 111.524 164.004 112.809 164.962 113.759C165.92 114.71 167.209 115.252 168.558 115.272Z" fill="#E83030"/>
<path id="Vector_6" d="M109.079 56.4596C110.085 56.4519 111.067 56.1465 111.9 55.5817C112.733 55.017 113.38 54.2182 113.76 53.2861C114.14 52.3541 114.235 51.3304 114.034 50.3443C113.833 49.3581 113.344 48.4536 112.63 47.7447C111.916 47.0357 111.007 46.5542 110.02 46.3607C109.032 46.1672 108.009 46.2704 107.08 46.6574C106.151 47.0443 105.357 47.6975 104.799 48.5349C104.24 49.3722 103.942 50.3561 103.942 51.3626C103.973 52.7116 104.525 53.9964 105.483 54.947C106.44 55.8975 107.729 56.4397 109.079 56.4596Z" fill="#E83030"/>
<path id="Vector_7" d="M17.4481 190.945C15.051 190.976 12.7166 191.715 10.7385 193.07C8.76043 194.424 7.22697 196.333 6.33102 198.556C5.43506 200.78 5.21663 203.219 5.70319 205.566C6.18974 207.913 7.35956 210.064 9.0655 211.749C10.7714 213.433 12.9374 214.575 15.2908 215.031C17.6442 215.488 20.08 215.238 22.2918 214.314C24.5037 213.389 26.3928 211.831 27.7215 209.836C29.0503 207.841 29.7594 205.497 29.7596 203.1C29.7286 199.859 28.4165 196.762 26.1099 194.484C23.8033 192.207 20.6894 190.935 17.4481 190.945Z" fill="#E83030"/>
<path id="Vector_8" d="M49.599 105.473C48.5926 105.48 47.6109 105.786 46.7779 106.351C45.9448 106.915 45.2976 107.714 44.9178 108.646C44.538 109.578 44.4427 110.602 44.6438 111.588C44.8449 112.574 45.3333 113.479 46.0477 114.188C46.7621 114.897 47.6705 115.378 48.6581 115.572C49.6458 115.765 50.6686 115.662 51.5977 115.275C52.5268 114.888 53.3205 114.235 53.8789 113.398C54.4373 112.56 54.7353 111.576 54.7353 110.57C54.705 109.221 54.1529 107.936 53.1951 106.985C52.2372 106.035 50.9482 105.493 49.599 105.473Z" fill="#E83030"/>
<path id="Vector_9" d="M203.493 27.0546C204.961 27.0314 206.39 26.5749 207.599 25.7423C208.809 24.9098 209.745 23.7383 210.291 22.3752C210.837 21.0121 210.968 19.5182 210.667 18.0809C210.367 16.6437 209.648 15.3273 208.602 14.2972C207.555 13.2671 206.228 12.5691 204.786 12.291C203.344 12.013 201.852 12.1672 200.498 12.7344C199.144 13.3015 197.987 14.2562 197.174 15.4786C196.36 16.7011 195.926 18.1366 195.926 19.605C195.898 20.6009 196.075 21.5918 196.447 22.5161C196.819 23.4403 197.378 24.2781 198.088 24.977C198.798 25.6759 199.644 26.2211 200.574 26.5786C201.504 26.936 202.498 27.098 203.493 27.0546Z" fill="#E83030"/>
<path id="Vector_10" d="M159.853 7.44944C160.549 7.45717 161.228 7.67073 161.803 8.06315C162.378 8.45557 162.824 9.00936 163.085 9.6548C163.346 10.3002 163.411 11.0085 163.27 11.6904C163.129 12.3723 162.79 12.9974 162.295 13.487C161.8 13.9766 161.171 14.3088 160.488 14.4419C159.805 14.5749 159.097 14.5027 158.455 14.2345C157.812 13.9663 157.263 13.514 156.877 12.9346C156.491 12.3551 156.285 11.6746 156.285 10.9783C156.285 10.5116 156.378 10.0495 156.557 9.61879C156.737 9.18808 157.001 8.79721 157.332 8.46902C157.664 8.14082 158.058 7.88183 158.491 7.70681C158.923 7.5318 159.386 7.44425 159.853 7.44944Z" fill="#E83030"/>
<path id="Vector_11" d="M43.2467 0.000217886C43.9429 0.00795397 44.6213 0.22151 45.1964 0.61393C45.7715 1.00635 46.2176 1.56014 46.4787 2.20558C46.7398 2.85103 46.8041 3.55925 46.6636 4.24116C46.523 4.92307 46.1839 5.54819 45.6889 6.03778C45.1938 6.52738 44.565 6.85962 43.8816 6.99263C43.1982 7.12564 42.4907 7.05347 41.8482 6.78527C41.2057 6.51707 40.6568 6.06476 40.2708 5.48533C39.8847 4.90591 39.6788 4.22522 39.6787 3.52897C39.6787 3.06225 39.7711 2.60015 39.9509 2.16945C40.1307 1.73874 40.3942 1.348 40.7261 1.0198C41.0579 0.691605 41.4515 0.432491 41.8842 0.257477C42.3169 0.0824623 42.78 -0.00496793 43.2467 0.000217886Z" fill="#E83030"/>
<path id="Vector_12" d="M211.805 166.637C212.502 166.645 213.18 166.858 213.755 167.251C214.33 167.643 214.776 168.197 215.037 168.842C215.298 169.488 215.363 170.196 215.222 170.878C215.082 171.56 214.743 172.185 214.247 172.675C213.752 173.164 213.124 173.496 212.44 173.629C211.757 173.762 211.049 173.69 210.407 173.422C209.764 173.154 209.215 172.701 208.829 172.122C208.443 171.543 208.237 170.862 208.237 170.166C208.237 169.699 208.33 169.237 208.51 168.806C208.689 168.375 208.953 167.985 209.285 167.657C209.616 167.328 210.01 167.069 210.443 166.894C210.875 166.719 211.339 166.632 211.805 166.637Z" fill="#E83030"/>
<path id="Vector_13" d="M182.046 205.844C182.742 205.852 183.42 206.065 183.995 206.458C184.57 206.85 185.016 207.404 185.278 208.049C185.539 208.695 185.603 209.403 185.462 210.085C185.322 210.767 184.983 211.392 184.488 211.882C183.993 212.371 183.364 212.703 182.68 212.836C181.997 212.969 181.29 212.897 180.647 212.629C180.004 212.361 179.456 211.909 179.07 211.329C178.684 210.75 178.478 210.069 178.478 209.373C178.478 208.906 178.57 208.444 178.75 208.013C178.93 207.582 179.193 207.192 179.525 206.864C179.857 206.535 180.25 206.276 180.683 206.101C181.116 205.926 181.579 205.839 182.046 205.844Z" fill="#E83030"/>
<path id="Vector_14" d="M68.066 210.942C68.7623 210.949 69.4406 211.163 70.0157 211.555C70.5908 211.948 71.0371 212.501 71.2982 213.147C71.5593 213.792 71.6235 214.501 71.4829 215.182C71.3424 215.864 71.0032 216.489 70.5082 216.979C70.0132 217.469 69.3844 217.801 68.7009 217.934C68.0175 218.067 67.31 217.995 66.6675 217.727C66.025 217.458 65.4761 217.006 65.0901 216.427C64.7041 215.847 64.4981 215.167 64.498 214.47C64.498 214.004 64.5906 213.542 64.7704 213.111C64.9502 212.68 65.2135 212.289 65.5454 211.961C65.8772 211.633 66.271 211.374 66.7037 211.199C67.1363 211.024 67.5994 210.936 68.066 210.942Z" fill="#E83030"/>
<path id="Vector_15" d="M3.56788 159.188C4.26408 159.195 4.94254 159.409 5.51766 159.801C6.09279 160.194 6.53893 160.748 6.80001 161.393C7.06109 162.039 7.12543 162.747 6.98488 163.429C6.84432 164.111 6.5052 164.736 6.01016 165.225C5.51513 165.715 4.88631 166.047 4.20289 166.18C3.51947 166.313 2.81199 166.241 2.16947 165.973C1.52695 165.705 0.978095 165.252 0.592054 164.673C0.206013 164.093 4.29863e-05 163.413 6.73128e-09 162.716C-2.88042e-05 162.25 0.0924313 161.788 0.272216 161.357C0.452 160.926 0.715501 160.535 1.04734 160.207C1.37918 159.879 1.77282 159.62 2.20549 159.445C2.63815 159.27 3.10119 159.183 3.56788 159.188Z" fill="#E83030"/>
<path id="Vector_16" d="M6.35218 46.6604C7.04838 46.6681 7.72672 46.8817 8.30184 47.2741C8.87697 47.6665 9.32311 48.2203 9.58419 48.8657C9.84527 49.5112 9.90961 50.2194 9.76906 50.9013C9.6285 51.5832 9.28938 52.2083 8.79434 52.6979C8.29931 53.1875 7.67049 53.5198 6.98707 53.6528C6.30365 53.7858 5.59617 53.7136 4.95365 53.4454C4.31113 53.1772 3.76228 52.7249 3.37623 52.1455C2.99019 51.5661 2.78422 50.8855 2.78418 50.1892C2.78415 49.7225 2.87673 49.2604 3.05652 48.8297C3.2363 48.399 3.49968 48.0082 3.83152 47.68C4.16336 47.3518 4.557 47.0928 4.98967 46.9178C5.42233 46.7427 5.88549 46.6552 6.35218 46.6604Z" fill="#E83030"/>
</g>
</g>
<defs>
<clipPath id="clip0_277_48984">
<rect width="215.373" height="218" fill="white"/>
</clipPath>
</defs>
</svg>
