<svg width="215" height="218" viewBox="0 0 215 218" fill="none" xmlns="http://www.w3.org/2000/svg">
<g id="_1" clip-path="url(#clip0_289_52275)">
<g id="705, Check, Success, Tick">
<path id="Vector" d="M168.266 115.272C169.271 115.264 170.251 114.959 171.082 114.394C171.914 113.829 172.56 113.031 172.939 112.099C173.318 111.167 173.413 110.143 173.213 109.157C173.012 108.171 172.524 107.266 171.811 106.557C171.098 105.848 170.191 105.367 169.205 105.173C168.219 104.98 167.198 105.083 166.271 105.47C165.343 105.857 164.551 106.51 163.994 107.347C163.436 108.185 163.139 109.169 163.139 110.175C163.169 111.524 163.72 112.809 164.676 113.759C165.632 114.71 166.919 115.252 168.266 115.272Z" fill="#17CF4E"/>
<path id="Vector_2" d="M108.889 34.11C93.909 34.2802 79.3137 38.8856 66.9404 47.3465C54.567 55.8074 44.9687 67.7457 39.3534 81.6589C33.738 95.572 32.3565 110.838 35.3829 125.536C38.4093 140.234 45.7084 153.707 56.3613 164.258C67.0142 174.81 80.5449 181.969 95.2505 184.835C109.956 187.701 125.179 186.145 139.004 180.363C152.829 174.582 164.638 164.832 172.944 152.343C181.25 139.854 185.682 125.182 185.683 110.175C185.539 89.8965 177.374 70.5028 162.979 56.2446C148.584 41.9863 129.133 34.0265 108.889 34.11ZM108.889 41.5598C110.819 41.583 112.7 42.1776 114.293 43.2687C115.887 44.3598 117.123 45.8986 117.846 47.6916C118.568 49.4846 118.745 51.4517 118.354 53.3453C117.964 55.2389 117.023 56.9744 115.65 58.3335C114.277 59.6926 112.533 60.6146 110.638 60.9834C108.743 61.3522 106.782 61.1514 105.001 60.4062C103.22 59.6609 101.698 58.4045 100.628 56.7952C99.5579 55.1859 98.9869 53.2956 98.9867 51.3619C98.9813 50.0632 99.2347 48.7766 99.732 47.5772C100.229 46.3778 100.96 45.2898 101.882 44.3769C102.805 43.4641 103.899 42.7447 105.102 42.2609C106.306 41.7772 107.593 41.5389 108.889 41.5598ZM49.5129 119.977C47.5827 119.954 45.7025 119.359 44.1088 118.268C42.5152 117.177 41.2793 115.638 40.5567 113.845C39.834 112.052 39.657 110.085 40.0477 108.191C40.4384 106.298 41.3795 104.562 42.7525 103.203C44.1255 101.844 45.8692 100.922 47.7641 100.553C49.6589 100.185 51.6204 100.385 53.4015 101.131C55.1827 101.876 56.7041 103.132 57.7742 104.742C58.8443 106.351 59.4154 108.241 59.4155 110.175C59.4209 111.474 59.1675 112.76 58.6703 113.96C58.173 115.159 57.442 116.247 56.5198 117.16C55.5977 118.073 54.5029 118.792 53.2998 119.276C52.0966 119.76 50.8092 119.998 49.5129 119.977ZM108.889 178.79C106.961 178.759 105.085 178.158 103.496 177.062C101.908 175.967 100.678 174.425 99.9614 172.632C99.2447 170.838 99.0732 168.872 99.4682 166.981C99.8633 165.09 100.807 163.358 102.182 162.003C103.556 160.648 105.3 159.73 107.194 159.364C109.087 158.999 111.047 159.202 112.826 159.948C114.605 160.694 116.124 161.95 117.192 163.559C118.261 165.167 118.831 167.056 118.831 168.988C118.837 170.29 118.582 171.58 118.082 172.782C117.583 173.984 116.848 175.074 115.922 175.987C114.995 176.9 113.896 177.619 112.688 178.1C111.481 178.582 110.189 178.816 108.889 178.79ZM149.674 94.4914L102.157 141.542C101.726 141.955 101.18 142.228 100.591 142.326C100.282 142.326 99.9768 142.255 99.6987 142.119C99.4207 141.984 99.1771 141.786 98.9867 141.542L72.8407 115.664C72.4596 115.155 72.2537 114.536 72.2537 113.9C72.2537 113.263 72.4596 112.644 72.8407 112.135L85.131 99.9807C85.6452 99.5957 86.2699 99.3875 86.9118 99.3875C87.5538 99.3875 88.1785 99.5957 88.6927 99.9807L100.983 112.135L134.213 79.2C134.728 78.815 135.352 78.6069 135.994 78.6069C136.636 78.6069 137.261 78.815 137.775 79.2L150.065 91.3548C150.292 91.8637 150.375 92.4247 150.306 92.9775C150.237 93.5303 150.018 94.0539 149.674 94.4914ZM178.168 110.175C178.192 112.142 177.631 114.071 176.557 115.718C175.483 117.364 173.945 118.654 172.138 119.423C170.33 120.192 168.335 120.405 166.407 120.036C164.478 119.667 162.703 118.731 161.306 117.348C159.91 115.966 158.955 114.199 158.563 112.271C158.171 110.344 158.36 108.343 159.106 106.524C159.852 104.704 161.121 103.148 162.752 102.053C164.383 100.958 166.302 100.373 168.266 100.373C169.562 100.352 170.85 100.59 172.053 101.074C173.256 101.558 174.351 102.277 175.273 103.19C176.195 104.103 176.926 105.191 177.423 106.39C177.92 107.59 178.174 108.876 178.168 110.175Z" fill="#17CF4E"/>
<path id="Vector_3" d="M108.89 14.5086C90.0493 14.7252 71.6936 20.5197 56.133 31.1627C40.5724 41.8058 28.5022 56.822 21.4415 74.3212C14.3808 91.8204 12.6453 111.021 16.4531 129.506C20.261 147.991 29.4421 164.935 42.8411 178.205C56.2401 191.475 73.2582 200.478 91.7535 204.081C110.249 207.684 129.395 205.727 146.782 198.455C164.169 191.183 179.021 178.921 189.467 163.213C199.913 147.505 205.488 129.052 205.489 110.178C205.303 84.672 195.031 60.2804 176.924 42.3479C158.817 24.4153 134.352 14.4042 108.89 14.5086ZM108.89 190.947C92.9841 190.762 77.4886 185.868 64.3532 176.88C51.2178 167.893 41.0296 155.215 35.0708 140.441C29.1119 125.666 27.6485 109.457 30.8649 93.8515C34.0813 78.2462 41.8337 63.9425 53.1465 52.7406C64.4593 41.5387 78.8269 33.9391 94.4414 30.898C110.056 27.857 126.22 29.5106 140.898 35.6505C155.577 41.7905 168.114 52.1424 176.933 65.4037C185.752 78.6651 190.458 94.2433 190.459 110.178C190.294 131.711 181.617 152.302 166.328 167.44C151.04 182.578 130.386 191.031 108.89 190.947Z" fill="#17CF4E"/>
<path id="Vector_4" d="M49.5131 105.473C48.5084 105.48 47.5284 105.786 46.6968 106.351C45.8652 106.915 45.2191 107.714 44.84 108.646C44.4609 109.578 44.3657 110.602 44.5665 111.588C44.7672 112.574 45.2548 113.479 45.968 114.188C46.6811 114.897 47.5879 115.378 48.5738 115.572C49.5598 115.765 50.5808 115.662 51.5083 115.275C52.4358 114.888 53.2282 114.235 53.7856 113.397C54.343 112.56 54.6405 111.576 54.6405 110.57C54.6102 109.221 54.0591 107.936 53.1029 106.985C52.1468 106.035 50.86 105.493 49.5131 105.473Z" fill="#17CF4E"/>
<path id="Vector_5" d="M108.889 56.4597C109.894 56.4519 110.874 56.1464 111.705 55.5816C112.537 55.0169 113.183 54.2182 113.562 53.2862C113.941 52.3541 114.036 51.3305 113.836 50.3443C113.635 49.3582 113.147 48.4536 112.434 47.7447C111.721 47.0358 110.814 46.5543 109.828 46.3608C108.842 46.1672 107.821 46.2704 106.894 46.6573C105.966 47.0442 105.174 47.6976 104.617 48.5349C104.059 49.3722 103.762 50.3562 103.762 51.3626C103.792 52.7117 104.343 53.9965 105.299 54.947C106.255 55.8975 107.542 56.4397 108.889 56.4597Z" fill="#17CF4E"/>
<path id="Vector_6" d="M102.157 117.232C101.643 117.617 101.019 117.825 100.377 117.825C99.7346 117.825 99.1098 117.617 98.5956 117.232L86.3055 105.077L77.6162 113.703L100.161 136.052L143.725 92.9226L135.036 84.2969L102.157 117.232Z" fill="#17CF4E"/>
<path id="Vector_7" d="M108.89 164.285C107.887 164.301 106.911 164.613 106.085 165.182C105.258 165.751 104.618 166.553 104.245 167.485C103.872 168.418 103.782 169.44 103.987 170.424C104.192 171.407 104.683 172.308 105.398 173.013C106.112 173.718 107.019 174.196 108.004 174.386C108.989 174.577 110.008 174.471 110.933 174.083C111.858 173.696 112.648 173.042 113.204 172.206C113.76 171.369 114.056 170.387 114.056 169.382C114.073 168.702 113.95 168.025 113.695 167.394C113.441 166.763 113.059 166.191 112.575 165.713C112.091 165.235 111.514 164.862 110.88 164.617C110.246 164.371 109.569 164.258 108.89 164.285Z" fill="#17CF4E"/>
<path id="Vector_8" d="M17.4175 190.945C15.0246 190.976 12.6943 191.715 10.7196 193.07C8.74493 194.424 7.21413 196.333 6.31973 198.556C5.42532 200.78 5.20727 203.219 5.69298 205.566C6.17869 207.913 7.34649 210.064 9.04947 211.749C10.7525 213.433 12.9147 214.575 15.264 215.031C17.6133 215.488 20.0449 215.238 22.2529 214.314C24.4609 213.389 26.3467 211.832 27.6732 209.836C28.9997 207.841 29.7076 205.497 29.7078 203.1C29.6768 199.859 28.367 196.762 26.0644 194.485C23.7617 192.207 20.6532 190.935 17.4175 190.945Z" fill="#17CF4E"/>
<path id="Vector_9" d="M203.14 27.0545C204.606 27.0314 206.032 26.5749 207.239 25.7424C208.447 24.9099 209.382 23.7384 209.926 22.3753C210.471 21.0122 210.602 19.5181 210.302 18.0809C210.002 16.6436 209.284 15.3273 208.24 14.2971C207.195 13.267 205.87 12.569 204.431 12.291C202.992 12.013 201.502 12.1673 200.15 12.7344C198.798 13.3016 197.644 14.2562 196.832 15.4786C196.019 16.701 195.586 18.1367 195.586 19.605C195.558 20.601 195.735 21.5918 196.107 22.516C196.478 23.4403 197.035 24.2781 197.744 24.9771C198.453 25.676 199.298 26.2211 200.226 26.5786C201.155 26.936 202.146 27.098 203.14 27.0545Z" fill="#17CF4E"/>
<path id="Vector_10" d="M159.576 7.44944C160.271 7.45717 160.949 7.67085 161.523 8.06327C162.097 8.45569 162.542 9.00948 162.803 9.65492C163.064 10.3004 163.128 11.0086 162.987 11.6905C162.847 12.3724 162.509 12.9974 162.014 13.487C161.52 13.9766 160.893 14.3088 160.21 14.4419C159.528 14.5749 158.822 14.5028 158.18 14.2346C157.539 13.9664 156.991 13.5141 156.606 12.9347C156.22 12.3552 156.015 11.6746 156.015 10.9783C156.015 10.5116 156.107 10.0495 156.287 9.61879C156.466 9.18808 156.729 8.79733 157.06 8.46914C157.391 8.14094 157.784 7.88171 158.216 7.7067C158.648 7.53168 159.111 7.44425 159.576 7.44944Z" fill="#17CF4E"/>
<path id="Vector_11" d="M43.1722 0.000217886C43.8672 0.00795397 44.5443 0.22139 45.1185 0.61381C45.6926 1.00623 46.138 1.56002 46.3986 2.20546C46.6592 2.85091 46.7234 3.55913 46.5831 4.24104C46.4428 4.92295 46.1043 5.54795 45.6101 6.03754C45.1159 6.52714 44.4882 6.85938 43.806 6.99239C43.1237 7.1254 42.4175 7.05335 41.7761 6.78515C41.1347 6.51695 40.5868 6.06464 40.2014 5.48521C39.816 4.90579 39.6104 4.2251 39.6104 3.52885C39.6103 3.06213 39.7026 2.60003 39.8821 2.16933C40.0616 1.73862 40.3246 1.34788 40.6559 1.01968C40.9871 0.691486 41.3801 0.432491 41.812 0.257477C42.2439 0.0824623 42.7063 -0.00496793 43.1722 0.000217886Z" fill="#17CF4E"/>
<path id="Vector_12" d="M211.438 166.637C212.133 166.645 212.81 166.858 213.384 167.251C213.958 167.643 214.404 168.197 214.664 168.842C214.925 169.488 214.989 170.196 214.849 170.878C214.708 171.56 214.37 172.185 213.876 172.674C213.382 173.164 212.754 173.496 212.072 173.629C211.389 173.762 210.683 173.69 210.042 173.422C209.4 173.154 208.852 172.701 208.467 172.122C208.082 171.543 207.876 170.862 207.876 170.166C207.876 169.699 207.968 169.237 208.148 168.806C208.327 168.375 208.59 167.985 208.922 167.656C209.253 167.328 209.646 167.069 210.078 166.894C210.51 166.719 210.972 166.632 211.438 166.637Z" fill="#17CF4E"/>
<path id="Vector_13" d="M181.731 205.844C182.426 205.852 183.103 206.065 183.677 206.458C184.251 206.85 184.697 207.404 184.957 208.049C185.218 208.695 185.282 209.403 185.142 210.085C185.001 210.767 184.663 211.392 184.169 211.881C183.675 212.371 183.047 212.703 182.365 212.836C181.682 212.969 180.976 212.897 180.335 212.629C179.693 212.361 179.145 211.908 178.76 211.329C178.375 210.75 178.169 210.069 178.169 209.373C178.169 208.906 178.261 208.444 178.441 208.013C178.62 207.582 178.883 207.192 179.214 206.863C179.546 206.535 179.939 206.276 180.371 206.101C180.803 205.926 181.265 205.839 181.731 205.844Z" fill="#17CF4E"/>
<path id="Vector_14" d="M67.9485 210.942C68.6435 210.949 69.3207 211.163 69.8948 211.555C70.469 211.948 70.9144 212.501 71.1751 213.147C71.4357 213.792 71.4998 214.501 71.3595 215.182C71.2192 215.864 70.8806 216.49 70.3865 216.979C69.8923 217.469 69.2646 217.801 68.5823 217.934C67.9001 218.067 67.1938 217.995 66.5524 217.727C65.911 217.458 65.3631 217.006 64.9777 216.427C64.5924 215.847 64.3868 215.167 64.3867 214.47C64.3867 214.004 64.4791 213.541 64.6586 213.111C64.8381 212.68 65.101 212.289 65.4322 211.961C65.7635 211.633 66.1566 211.374 66.5885 211.199C67.0204 211.024 67.4827 210.936 67.9485 210.942Z" fill="#17CF4E"/>
<path id="Vector_15" d="M3.5617 159.188C4.2567 159.195 4.93398 159.409 5.50811 159.801C6.08223 160.194 6.5276 160.748 6.78823 161.393C7.04886 162.038 7.11309 162.747 6.97278 163.429C6.83247 164.11 6.49393 164.736 5.99975 165.225C5.50558 165.715 4.87785 166.047 4.19561 166.18C3.51337 166.313 2.80712 166.241 2.16571 165.973C1.52431 165.704 0.976401 165.252 0.591029 164.673C0.205656 164.094 4.29118e-05 163.413 6.71962e-09 162.717C-2.87544e-05 162.25 0.0922712 161.788 0.271744 161.357C0.451217 160.926 0.714262 160.536 1.04553 160.207C1.3768 159.879 1.76975 159.62 2.20167 159.445C2.63358 159.27 3.09581 159.183 3.5617 159.188Z" fill="#17CF4E"/>
<path id="Vector_16" d="M6.34112 46.6565C7.03612 46.6642 7.71328 46.8779 8.2874 47.2703C8.86153 47.6627 9.3069 48.2165 9.56753 48.862C9.82816 49.5074 9.89239 50.2156 9.75207 50.8975C9.61176 51.5794 9.27323 52.2044 8.77905 52.694C8.28487 53.1836 7.65715 53.5159 6.97491 53.6489C6.29267 53.7819 5.58641 53.7098 4.94501 53.4416C4.3036 53.1734 3.7557 52.7211 3.37033 52.1417C2.98495 51.5623 2.77934 50.8816 2.7793 50.1853C2.77927 49.7186 2.87169 49.2565 3.05116 48.8258C3.23063 48.3951 3.49356 48.0044 3.82483 47.6762C4.15609 47.348 4.54905 47.0887 4.98096 46.9137C5.41288 46.7387 5.87523 46.6513 6.34112 46.6565Z" fill="#17CF4E"/>
</g>
</g>
<defs>
<clipPath id="clip0_289_52275">
<rect width="215" height="218" fill="white"/>
</clipPath>
</defs>
</svg>
