<svg width="24" height="24" viewBox="0 0 24 24" fill="none" xmlns="http://www.w3.org/2000/svg">
<g id="volume-up 1">
<path id="Vector" fill-rule="evenodd" clip-rule="evenodd" d="M11.2598 3.69083C11.479 3.78172 11.6664 3.93557 11.7982 4.13294C11.9299 4.3303 12.0002 4.56231 12.0002 4.79963V19.1996C12.0001 19.437 11.9297 19.6689 11.7979 19.8662C11.666 20.0635 11.4786 20.2172 11.2594 20.308C11.0401 20.3989 10.7989 20.4226 10.5662 20.3763C10.3334 20.33 10.1196 20.2158 9.95179 20.048L5.5034 15.5996H2.4002C2.08193 15.5996 1.77671 15.4732 1.55166 15.2481C1.32663 15.0231 1.2002 14.7178 1.2002 14.3996V9.59963C1.2002 9.28137 1.32663 8.97615 1.55166 8.7511C1.77671 8.52605 2.08193 8.39963 2.4002 8.39963H5.5034L9.95179 3.95123C10.1196 3.78331 10.3335 3.66895 10.5663 3.62259C10.7991 3.57623 11.0405 3.59998 11.2598 3.69083ZM17.5886 3.51443C17.8136 3.28947 18.1188 3.16309 18.437 3.16309C18.7552 3.16309 19.0604 3.28947 19.2854 3.51443C20.4012 4.62761 21.286 5.95025 21.8893 7.40641C22.4924 8.86255 22.802 10.4235 22.8002 11.9996C22.802 13.5758 22.4924 15.1368 21.8893 16.5928C21.286 18.049 20.4012 19.3717 19.2854 20.4848C19.0591 20.7034 18.756 20.8244 18.4413 20.8216C18.1267 20.8189 17.8257 20.6926 17.6032 20.4702C17.3808 20.2477 17.2545 19.9467 17.2518 19.6321C17.249 19.3174 17.37 19.0143 17.5886 18.788C18.4815 17.8977 19.1896 16.8396 19.6722 15.6746C20.1548 14.5095 20.4021 13.2606 20.4002 11.9996C20.4002 9.34763 19.3274 6.95003 17.5886 5.21123C17.3636 4.9862 17.2372 4.68103 17.2372 4.36283C17.2372 4.04463 17.3636 3.73946 17.5886 3.51443ZM14.1938 6.90803C14.3053 6.79646 14.4376 6.70795 14.5833 6.64756C14.729 6.58717 14.8851 6.55609 15.0428 6.55609C15.2005 6.55609 15.3566 6.58717 15.5023 6.64756C15.648 6.70795 15.7803 6.79646 15.8918 6.90803C16.5613 7.57603 17.0922 8.36971 17.454 9.24349C17.8158 10.1173 18.0014 11.0539 18.0002 11.9996C18.0014 12.9453 17.8158 13.8819 17.4538 14.7558C17.092 15.6295 16.5612 16.4232 15.8918 17.0912C15.6667 17.3164 15.3613 17.4429 15.0428 17.4429C14.7243 17.4429 14.4189 17.3164 14.1938 17.0912C13.9687 16.8661 13.8421 16.5607 13.8421 16.2422C13.8421 15.9238 13.9687 15.6185 14.1938 15.3932C14.6404 14.9482 14.9946 14.4193 15.236 13.8369C15.4773 13.2544 15.6012 12.6301 15.6002 11.9996C15.6012 11.3692 15.4774 10.7447 15.236 10.1623C14.9947 9.57989 14.6404 9.05098 14.1938 8.60603C14.0822 8.49458 13.9938 8.36224 13.9333 8.21656C13.8729 8.07088 13.8418 7.91473 13.8418 7.75703C13.8418 7.59933 13.8729 7.44317 13.9333 7.29751C13.9938 7.15183 14.0822 7.01948 14.1938 6.90803Z" fill="#4B5563"/>
</g>
</svg>
